# xmcd
# Copyright (C) 1995-1998 Ti Kan
#
# Track frame offsets:
#       150
#       15440
#       29773
#       52528
#       74538
#       101430
#       119217
#       143027
#       155116
#       170188
#
# Disc length: 2666 seconds
#
# Revision: 0
# Processed by: cddbd v1.5.2PL0 Copyright (c) Steve Scherf et al.
# Submitted via: CD-Transfer v1.0
#
DISCID=8d0a680a
DTITLE=My Buddy Moose - Luka Benèiæ
DYEAR=13
DGENRE=
TTITLE0=Fucking Boring
TTITLE1=Girl
TTITLE2=Shine! Shine! Shine!
TTITLE3=She Knows
TTITLE4=Lack Of Imagination
TTITLE5=Roulette
TTITLE6=Love Like Ours
TTITLE7=Traveller
TTITLE8=Love, Love, Love
TTITLE9=Not The One
EXTD=
EXTT0=
EXTT1=
EXTT2=
EXTT3=
EXTT4=
EXTT5=
EXTT6=
EXTT7=
EXTT8=
EXTT9=
PLAYORDER=
